<svg width="8" height="13" viewBox="0 0 8 13" fill="none" xmlns="http://www.w3.org/2000/svg">
<path fill-rule="evenodd" clip-rule="evenodd" d="M1.11851 1.08778C1.15962 1.04657 1.20846 1.01387 1.26222 0.991558C1.31599 0.969248 1.37363 0.957764 1.43184 0.957764C1.49005 0.957764 1.54769 0.969248 1.60145 0.991558C1.65522 1.01387 1.70405 1.04657 1.74516 1.08778L7.05578 6.3984C7.097 6.43951 7.12969 6.48835 7.15201 6.54211C7.17432 6.59588 7.1858 6.65351 7.1858 6.71173C7.1858 6.76994 7.17432 6.82758 7.15201 6.88134C7.12969 6.93511 7.097 6.98394 7.05578 7.02505L1.74516 12.3357C1.66206 12.4188 1.54936 12.4655 1.43184 12.4655C1.31432 12.4655 1.20161 12.4188 1.11851 12.3357C1.03541 12.2526 0.988727 12.1399 0.988727 12.0223C0.988727 11.9048 1.03541 11.7921 1.11851 11.709L6.11669 6.71173L1.11851 1.71443C1.0773 1.67332 1.0446 1.62449 1.02229 1.57072C0.999979 1.51696 0.988495 1.45932 0.988495 1.40111C0.988495 1.3429 0.999979 1.28526 1.02229 1.23149C1.0446 1.17773 1.0773 1.12889 1.11851 1.08778Z" fill="#23A6F0"/>
</svg>
