<svg width="53" height="52" viewBox="0 0 53 52" fill="none" xmlns="http://www.w3.org/2000/svg">
<rect x="0.761536" y="0.00769043" width="51.7846" height="51.7846" rx="25.8923" fill="#23A6F0"/>
<g clip-path="url(#clip0)">
<path fill-rule="evenodd" clip-rule="evenodd" d="M34.5354 32.6128C34.5354 32.6128 35.6442 32.6128 35.6442 31.494C35.6442 30.3752 34.5354 27.0188 30.1002 27.0188C25.6649 27.0188 24.5561 30.3752 24.5561 31.494C24.5561 32.6128 25.6649 32.6128 25.6649 32.6128H34.5354ZM25.6893 31.494H34.511C34.5162 31.4934 34.5214 31.4926 34.5265 31.4917L34.5354 31.4895C34.5332 31.1941 34.3502 30.3371 33.6927 29.5652C33.0806 28.8413 32.0051 28.1376 30.1002 28.1376C28.1963 28.1376 27.1208 28.8424 26.5076 29.5652C25.8501 30.3371 25.666 31.1953 25.6649 31.4895C25.673 31.4911 25.6811 31.4926 25.6893 31.494ZM30.1002 24.7812C30.6883 24.7812 31.2524 24.5454 31.6683 24.1258C32.0841 23.7061 32.3178 23.137 32.3178 22.5435C32.3178 21.9501 32.0841 21.3809 31.6683 20.9613C31.2524 20.5417 30.6883 20.3059 30.1002 20.3059C29.512 20.3059 28.9479 20.5417 28.5321 20.9613C28.1162 21.3809 27.8825 21.9501 27.8825 22.5435C27.8825 23.137 28.1162 23.7061 28.5321 24.1258C28.9479 24.5454 29.512 24.7812 30.1002 24.7812ZM33.4266 22.5435C33.4266 22.9843 33.3406 23.4208 33.1734 23.828C33.0062 24.2352 32.7612 24.6052 32.4523 24.9169C32.1434 25.2286 31.7767 25.4758 31.3731 25.6445C30.9695 25.8131 30.537 25.9 30.1002 25.9C29.6633 25.9 29.2308 25.8131 28.8272 25.6445C28.4236 25.4758 28.0569 25.2286 27.748 24.9169C27.4391 24.6052 27.1941 24.2352 27.0269 23.828C26.8598 23.4208 26.7737 22.9843 26.7737 22.5435C26.7737 21.6534 27.1242 20.7997 27.748 20.1702C28.3718 19.5408 29.2179 19.1871 30.1002 19.1871C30.9824 19.1871 31.8285 19.5408 32.4523 20.1702C33.0761 20.7997 33.4266 21.6534 33.4266 22.5435ZM25.5939 27.332C25.1504 27.1911 24.6932 27.0985 24.2301 27.0557C23.9699 27.0307 23.7086 27.0184 23.4473 27.0188C19.012 27.0188 17.9032 30.3752 17.9032 31.494C17.9032 32.2402 18.2724 32.6128 19.012 32.6128H23.6868C23.5224 32.2635 23.4404 31.8806 23.4473 31.494C23.4473 30.364 23.8653 29.2094 24.6559 28.245C24.9253 27.916 25.2391 27.6084 25.5939 27.332ZM23.3586 28.1376C21.5091 28.1599 20.459 28.8536 19.8547 29.5652C19.1927 30.3416 19.012 31.202 19.012 31.494H22.3385C22.3385 30.3248 22.6966 29.1601 23.3586 28.1376ZM19.5664 23.1029C19.5664 22.2128 19.9169 21.3591 20.5407 20.7296C21.1645 20.1002 22.0106 19.7465 22.8929 19.7465C23.7751 19.7465 24.6212 20.1002 25.245 20.7296C25.8688 21.3591 26.2193 22.2128 26.2193 23.1029C26.2193 23.9931 25.8688 24.8468 25.245 25.4763C24.6212 26.1057 23.7751 26.4594 22.8929 26.4594C22.0106 26.4594 21.1645 26.1057 20.5407 25.4763C19.9169 24.8468 19.5664 23.9931 19.5664 23.1029ZM22.8929 20.8653C22.3047 20.8653 21.7406 21.1011 21.3248 21.5207C20.9089 21.9404 20.6752 22.5095 20.6752 23.1029C20.6752 23.6964 20.9089 24.2655 21.3248 24.6852C21.7406 25.1048 22.3047 25.3406 22.8929 25.3406C23.481 25.3406 24.0451 25.1048 24.461 24.6852C24.8768 24.2655 25.1105 23.6964 25.1105 23.1029C25.1105 22.5095 24.8768 21.9404 24.461 21.5207C24.0451 21.1011 23.481 20.8653 22.8929 20.8653Z" fill="white"/>
</g>
<defs>
<clipPath id="clip0">
<rect width="17.2615" height="14.2154" fill="white" transform="translate(18.0231 18.7076)"/>
</clipPath>
</defs>
</svg>
