<svg width="18" height="19" viewBox="0 0 18 19" fill="none" xmlns="http://www.w3.org/2000/svg">
<g clip-path="url(#clip0)">
<path fill-rule="evenodd" clip-rule="evenodd" d="M12.7329 11.9016L17.376 16.5448C17.5392 16.7081 17.6309 16.9295 17.6308 17.1604C17.6307 17.3913 17.5389 17.6127 17.3756 17.7759C17.2123 17.9391 16.9908 18.0307 16.76 18.0306C16.5291 18.0306 16.3077 17.9388 16.1445 17.7755L11.5014 13.1323C10.1133 14.2074 8.36791 14.7133 6.62013 14.5471C4.87235 14.381 3.25351 13.5552 2.09294 12.2379C0.932374 10.9205 0.317252 9.21051 0.372712 7.45573C0.428172 5.70094 1.15005 4.0332 2.39149 2.79176C3.63293 1.55032 5.30067 0.82844 7.05546 0.77298C8.81024 0.71752 10.5202 1.33264 11.8376 2.49321C13.155 3.65378 13.9807 5.27262 14.1469 7.0204C14.313 8.76818 13.8071 10.5136 12.732 11.9016H12.7329ZM7.2742 12.8518C8.64755 12.8518 9.96465 12.3063 10.9358 11.3352C11.9069 10.3641 12.4524 9.04696 12.4524 7.6736C12.4524 6.30026 11.9069 4.98316 10.9358 4.01205C9.96465 3.04095 8.64755 2.49538 7.2742 2.49538C5.90085 2.49538 4.58375 3.04095 3.61264 4.01205C2.64154 4.98316 2.09598 6.30026 2.09598 7.6736C2.09598 9.04696 2.64154 10.3641 3.61264 11.3352C4.58375 12.3063 5.90085 12.8518 7.2742 12.8518Z" fill="white"/>
</g>
<defs>
<clipPath id="clip0">
<rect width="17.2615" height="17.2613" fill="white" transform="translate(0.369263 0.769287)"/>
</clipPath>
</defs>
</svg>
