<svg width="19" height="17" viewBox="0 0 19 17" fill="none" xmlns="http://www.w3.org/2000/svg">
<g clip-path="url(#clip0)">
<path d="M6.64625 16.5994C7.28181 16.5994 7.79702 16.0842 7.79702 15.4486C7.79702 14.8131 7.28181 14.2979 6.64625 14.2979C6.0107 14.2979 5.49548 14.8131 5.49548 15.4486C5.49548 16.0842 6.0107 16.5994 6.64625 16.5994Z" fill="white"/>
<path d="M14.7015 16.5994C15.3371 16.5994 15.8523 16.0842 15.8523 15.4486C15.8523 14.8131 15.3371 14.2979 14.7015 14.2979C14.066 14.2979 13.5508 14.8131 13.5508 15.4486C13.5508 16.0842 14.066 16.5994 14.7015 16.5994Z" fill="white"/>
<path d="M17.0031 3.36557H4.24107L3.76926 0.94895C3.74236 0.817028 3.67005 0.698717 3.56491 0.61461C3.45978 0.530503 3.32848 0.485928 3.19387 0.488642H0.892334V1.63941H2.72206L4.92003 12.6868C4.94693 12.8187 5.01924 12.937 5.12437 13.0211C5.2295 13.1052 5.3608 13.1498 5.49541 13.1471H15.8523V11.9963H5.96723L5.49541 9.6948H15.8523C15.9853 9.69805 16.1154 9.6551 16.2203 9.57328C16.3252 9.49145 16.3985 9.37579 16.4277 9.246L17.5785 4.06753C17.5978 3.98216 17.5973 3.89352 17.5772 3.80834C17.557 3.72317 17.5177 3.64371 17.4622 3.57602C17.4068 3.50833 17.3366 3.45419 17.257 3.41772C17.1774 3.38125 17.0906 3.36342 17.0031 3.36557ZM15.392 8.54403H5.27676L4.47123 4.51634H16.2839L15.392 8.54403Z" fill="white"/>
</g>
<defs>
<clipPath id="clip0">
<rect width="17.2615" height="16.1109" fill="white" transform="translate(0.892334 0.488525)"/>
</clipPath>
</defs>
</svg>
