<svg width="14" height="14" viewBox="0 0 14 14" fill="none" xmlns="http://www.w3.org/2000/svg">
<path d="M3.08684 8.91064L2.10388 13.167C2.07345 13.2959 2.08258 13.431 2.1301 13.5546C2.17762 13.6782 2.26132 13.7846 2.37025 13.8599C2.47919 13.9352 2.6083 13.976 2.74073 13.9767C2.87316 13.9775 3.00275 13.9384 3.11257 13.8643L6.70465 11.4696L10.2967 13.8643C10.4091 13.939 10.5416 13.9774 10.6765 13.9744C10.8113 13.9715 10.942 13.9273 11.051 13.8478C11.16 13.7683 11.2421 13.6574 11.2861 13.5299C11.3302 13.4024 11.3342 13.2645 11.2975 13.1347L10.0909 8.91262L13.0833 6.21971C13.1792 6.13341 13.2476 6.02092 13.2802 5.89613C13.3128 5.77135 13.3081 5.63975 13.2667 5.51762C13.2252 5.39548 13.1489 5.28816 13.0472 5.20893C12.9454 5.1297 12.8227 5.08203 12.6941 5.07183L8.93313 4.77232L7.30564 1.16968C7.25375 1.05368 7.16939 0.955172 7.06275 0.886052C6.9561 0.816931 6.83174 0.780151 6.70465 0.780151C6.57757 0.780151 6.4532 0.816931 6.34656 0.886052C6.23992 0.955172 6.15556 1.05368 6.10366 1.16968L4.47618 4.77232L0.715209 5.07117C0.588846 5.08118 0.468043 5.12738 0.367252 5.20425C0.26646 5.28112 0.189949 5.3854 0.14687 5.50461C0.103792 5.62383 0.0959705 5.75293 0.124342 5.87647C0.152714 6.00001 0.216078 6.11276 0.306853 6.20124L3.08684 8.91064ZM4.96897 6.05676C5.08673 6.04749 5.19982 6.0067 5.29639 5.93869C5.39296 5.87067 5.46945 5.77793 5.51785 5.67018L6.70465 3.0439L7.89146 5.67018C7.93986 5.77793 8.01635 5.87067 8.11292 5.93869C8.20949 6.0067 8.32258 6.04749 8.44033 6.05676L11.0607 6.26457L8.90278 8.20674C8.71543 8.37562 8.64088 8.63554 8.70949 8.87831L9.5361 11.7711L7.07145 10.1278C6.96327 10.0552 6.83593 10.0164 6.70564 10.0164C6.57536 10.0164 6.44802 10.0552 6.33984 10.1278L3.76436 11.845L4.45704 8.84599C4.48244 8.73569 4.47903 8.62071 4.44715 8.5121C4.41526 8.4035 4.35596 8.30493 4.27497 8.22587L2.27079 6.27183L4.96897 6.05676Z" fill="#F3CD03"/>
</svg>
