<svg width="14" height="14" viewBox="0 0 14 14" fill="none" xmlns="http://www.w3.org/2000/svg">
<path d="M13.8368 5.51709C13.7953 5.39496 13.719 5.28764 13.6172 5.20839C13.5154 5.12914 13.3927 5.08142 13.2641 5.07113L9.50317 4.77229L7.87568 1.16965C7.82385 1.05361 7.73954 0.955061 7.63294 0.885882C7.52634 0.816703 7.40199 0.779855 7.2749 0.779785C7.14782 0.779716 7.02343 0.816427 6.91675 0.885489C6.81007 0.954551 6.72566 1.05301 6.6737 1.16899L5.04621 4.77229L1.28525 5.07113C1.15888 5.08114 1.03808 5.12735 0.93729 5.20421C0.836498 5.28108 0.759986 5.38536 0.716908 5.50458C0.673829 5.62379 0.666008 5.75289 0.69438 5.87643C0.722752 5.99998 0.786116 6.11273 0.876891 6.2012L3.65622 8.9106L2.67326 13.167C2.64342 13.2958 2.65298 13.4307 2.70072 13.554C2.74846 13.6774 2.83216 13.7835 2.94097 13.8587C3.04978 13.9338 3.17867 13.9746 3.31092 13.9756C3.44317 13.9766 3.57266 13.9378 3.68261 13.8643L7.27469 11.4696L10.8668 13.8643C10.9791 13.9389 11.1117 13.9773 11.2465 13.9744C11.3814 13.9714 11.5121 13.9272 11.6211 13.8478C11.7301 13.7683 11.8121 13.6574 11.8562 13.5299C11.9002 13.4024 11.9042 13.2645 11.8675 13.1347L10.6609 8.91258L13.6534 6.21968C13.8493 6.04287 13.9212 5.76712 13.8368 5.51709Z" fill="#F3CD03"/>
</svg>
