<svg width="24" height="24" viewBox="0 0 24 24" fill="none" xmlns="http://www.w3.org/2000/svg">
<rect x="0.394226" y="0.957794" width="23.0154" height="23.0154" rx="11.5077" fill="#2DC071"/>
<g clip-path="url(#clip0)">
<path fill-rule="evenodd" clip-rule="evenodd" d="M17.8684 8.29712C17.915 8.34359 17.952 8.39879 17.9772 8.45957C18.0024 8.52035 18.0154 8.58551 18.0154 8.65131C18.0154 8.71711 18.0024 8.78227 17.9772 8.84305C17.952 8.90382 17.915 8.95903 17.8684 9.0055L10.8647 16.0093C10.8182 16.0558 10.763 16.0928 10.7022 16.118C10.6414 16.1432 10.5763 16.1562 10.5105 16.1562C10.4447 16.1562 10.3795 16.1432 10.3187 16.118C10.258 16.0928 10.2027 16.0558 10.1563 16.0093L6.6544 12.5074C6.56046 12.4134 6.50769 12.286 6.50769 12.1532C6.50769 12.0203 6.56046 11.8929 6.6544 11.799C6.74834 11.7051 6.87574 11.6523 7.00859 11.6523C7.14144 11.6523 7.26884 11.7051 7.36278 11.799L10.5105 14.9477L17.16 8.29712C17.2065 8.25053 17.2617 8.21357 17.3225 8.18835C17.3833 8.16313 17.4484 8.15015 17.5142 8.15015C17.58 8.15015 17.6452 8.16313 17.706 8.18835C17.7667 8.21357 17.8219 8.25053 17.8684 8.29712Z" fill="white"/>
</g>
<defs>
<clipPath id="clip0">
<rect width="11.5077" height="7.91154" fill="white" transform="translate(6.14807 8.15016)"/>
</clipPath>
</defs>
</svg>
