<svg width="24" height="24" viewBox="0 0 24 24" fill="none" xmlns="http://www.w3.org/2000/svg">
<rect x="0.394226" y="0.173218" width="23.0154" height="23.0154" rx="11.5077" fill="#BDBDBD"/>
<g clip-path="url(#clip0)">
<path fill-rule="evenodd" clip-rule="evenodd" d="M17.8684 7.51251C17.915 7.55898 17.952 7.61419 17.9772 7.67497C18.0024 7.73574 18.0154 7.8009 18.0154 7.8667C18.0154 7.9325 18.0024 7.99766 17.9772 8.05844C17.952 8.11922 17.915 8.17442 17.8684 8.22089L10.8647 15.2246C10.8182 15.2712 10.763 15.3082 10.7022 15.3334C10.6414 15.3586 10.5763 15.3716 10.5105 15.3716C10.4447 15.3716 10.3795 15.3586 10.3187 15.3334C10.258 15.3082 10.2027 15.2712 10.1563 15.2246L6.6544 11.7228C6.56046 11.6288 6.50769 11.5014 6.50769 11.3686C6.50769 11.2357 6.56046 11.1083 6.6544 11.0144C6.74834 10.9205 6.87574 10.8677 7.00859 10.8677C7.14144 10.8677 7.26884 10.9205 7.36278 11.0144L10.5105 14.1631L17.16 7.51251C17.2065 7.46592 17.2617 7.42896 17.3225 7.40374C17.3833 7.37852 17.4484 7.36554 17.5142 7.36554C17.58 7.36554 17.6452 7.37852 17.706 7.40374C17.7667 7.42896 17.8219 7.46592 17.8684 7.51251Z" fill="white"/>
</g>
<defs>
<clipPath id="clip0">
<rect width="11.5077" height="7.91154" fill="white" transform="translate(6.14807 7.36551)"/>
</clipPath>
</defs>
</svg>
