<svg width="10" height="8" viewBox="0 0 10 8" fill="none" xmlns="http://www.w3.org/2000/svg">
<path fill-rule="evenodd" clip-rule="evenodd" d="M0.796143 4.3652C0.796143 4.22897 0.852968 4.09832 0.954118 4.002C1.05527 3.90567 1.19246 3.85155 1.33551 3.85155H7.58456L5.26854 1.647C5.16726 1.55055 5.11036 1.41973 5.11036 1.28334C5.11036 1.14694 5.16726 1.01612 5.26854 0.919676C5.36982 0.823227 5.50718 0.769043 5.65041 0.769043C5.79364 0.769043 5.931 0.823227 6.03228 0.919676L9.26845 4.00154C9.31868 4.04925 9.35853 4.10593 9.38572 4.16833C9.41292 4.23074 9.42691 4.29764 9.42691 4.3652C9.42691 4.43276 9.41292 4.49966 9.38572 4.56206C9.35853 4.62446 9.31868 4.68114 9.26845 4.72886L6.03228 7.81072C5.931 7.90717 5.79364 7.96135 5.65041 7.96135C5.50718 7.96135 5.36982 7.90717 5.26854 7.81072C5.16726 7.71427 5.11036 7.58346 5.11036 7.44706C5.11036 7.31066 5.16726 7.17985 5.26854 7.0834L7.58456 4.87884H1.33551C1.19246 4.87884 1.05527 4.82473 0.954118 4.7284C0.852968 4.63207 0.796143 4.50142 0.796143 4.3652Z" fill="white"/>
</svg>
